<?xml version="1.0" encoding="utf-8"?>
<!-- Generator: Adobe Illustrator 23.0.1, SVG Export Plug-In . SVG Version: 6.00 Build 0)  -->
<svg version="1.1"
	 id="svg8" inkscape:version="0.92.3 (2405546, 2018-03-11)" sodipodi:docname="japan.svg" xmlns:cc="http://creativecommons.org/ns#" xmlns:dc="http://purl.org/dc/elements/1.1/" xmlns:inkscape="http://www.inkscape.org/namespaces/inkscape" xmlns:rdf="http://www.w3.org/1999/02/22-rdf-syntax-ns#" xmlns:sodipodi="http://sodipodi.sourceforge.net/DTD/sodipodi-0.dtd" xmlns:svg="http://www.w3.org/2000/svg"
	 xmlns="http://www.w3.org/2000/svg" xmlns:xlink="http://www.w3.org/1999/xlink" x="0px" y="0px" viewBox="0 0 88.2 116.6"
	 style="enable-background:new 0 0 88.2 116.6;" xml:space="preserve">
<style type="text/css">
	.st0{fill:none;}
	.st1{fill:#E30016;}
	.st2{fill-rule:evenodd;clip-rule:evenodd;fill:#0F0D04;}
	.st3{fill-rule:evenodd;clip-rule:evenodd;fill:#FBBE00;}
</style>
<path id="Layer1001" class="st0" d="M44.1,104.6c1.7-1.2,3.8-2.5,6.2-4c3.1-1.8,6.8-3.8,11.2-5.7c2.8-1.2,5.2-2.4,7.2-3.5
	c1.9-1.1,3.4-2.2,4.7-3.2c1-0.9,1.8-1.8,2.4-2.7c0.6-0.9,1.1-1.8,1.5-2.8c1.7-4.5,1.5-12,1.5-12.7l0-51.8H9.5l0,51.8
	c0,0.7-0.2,8.2,1.5,12.7c0.4,1,0.8,1.9,1.5,2.8c0.6,0.9,1.4,1.8,2.4,2.7c1.2,1.1,2.8,2.1,4.7,3.2c2,1.1,4.3,2.3,7.2,3.5
	c4.4,1.9,8.1,3.9,11.2,5.7C40.3,102,42.4,103.4,44.1,104.6L44.1,104.6z M38.9,26c-0.8,0-1.4,0.6-1.4,1.4c0,0.8,0.6,1.4,1.4,1.4
	c0.8,0,1.4-0.6,1.4-1.4C40.3,26.7,39.7,26,38.9,26z M41.1,26.5c0,0,0.1,1.2,0.1,1.2l3.2-1.3c0,0,0.1-0.2,0-0.2c-0.1-0.1-0.2,0-0.2,0
	L41.1,26.5z M38.9,26.8c-0.4,0-0.7,0.3-0.7,0.7c0,0.4,0.3,0.7,0.7,0.7c0.4,0,0.7-0.3,0.7-0.7C39.5,27.1,39.3,26.8,38.9,26.8z
	 M65.1,103.3c-11.5,5-18.2,10.7-18.3,10.8c-0.8,0.8-2,1.7-2.9,2.4l-2.6-2.6c-0.7-0.6-3.6-2.9-8.3-5.7c-2.7-1.6-6-3.4-9.8-5
	c-3.2-1.4-6-2.8-8.2-4.1c-2.3-1.4-4.3-2.7-5.9-4.1c-1.7-1.5-3.1-3-4.2-4.6c-1.1-1.6-1.9-3.2-2.6-5c-0.9-2.2-1.4-4.8-1.7-7.3
	c-0.5-3.8-0.5-7.3-0.5-8.6V0.1h88v69.4c0,1.3,0,4.9-0.5,8.6c-0.3,2.4-0.8,5-1.7,7.3c-0.7,1.8-1.5,3.4-2.6,5
	c-1.1,1.6-2.5,3.1-4.2,4.6c-1.6,1.4-3.5,2.8-5.9,4.1C71,100.5,68.3,101.8,65.1,103.3z M44.1,113.6c0,0,7.5-6.5,20.3-12
	C77.2,96,81.7,91.3,84.1,85.2c2.3-6.1,2-15.6,2-15.6V1.9H2.2v67.7c0,0-0.4,9.5,2,15.6c2.3,6.1,6.9,10.8,19.7,16.3
	C36.6,107.1,44.1,113.6,44.1,113.6z M32.3,12.5h-2.2l0.9-2.1l0,0l0.9-2.1l0-0.1l0.8-1.8h0L33,5.7l0,0l0-0.1c0.1-0.1,0.2-0.4,0.6-0.4
	H36L35.7,6l0.2,0.4h0l0.8,1.8l0,0.1l0.9,2.1l0,0l0.9,2.1h-2.2l-0.4-1h-3.1L32.3,12.5z M58.5,5.2h0.8h1.2l2.8,3.9V7V5.5
	c0-0.1,0.1-0.2,0.2-0.2h0.8h1.2v5.5v1.5c0,0.1-0.1,0.2-0.2,0.2h-0.8h-1.2l-2.8-3.9v2.1v1.5c0,0.1-0.1,0.2-0.2,0.2h-0.8h-1.2V7V5.5
	C58.3,5.3,58.4,5.2,58.5,5.2z M40.8,5.2h0.1h1.8h1.6h0.1v0c1.5,0,2.7,1.3,2.7,2.8s-1.2,2.7-2.7,2.8h0l0,0l0,0h-1.5v1.7h-2.2v-7
	C40.5,5.3,40.6,5.2,40.8,5.2z M42.7,6.9v2.3h0.9h0h0h0c0.6,0,1.1-0.5,1.1-1.1c0-0.6-0.5-1.1-1.1-1.1l0,0h0L42.7,6.9z M50.2,12.5H48
	l0.9-2.1l0,0l0.9-2.1l0-0.1l0.8-1.8h0l0.3-0.7l0,0l0-0.1c0.1-0.1,0.2-0.4,0.6-0.4h2.4L53.6,6l0.2,0.4h0l0.8,1.8l0,0.1l0.9,2.1l0,0
	l0.9,2.1h-2.2l-0.4-1h-3.1L50.2,12.5z M52.2,7.8L52,8.2l0,0.1l0,0l-0.7,1.7h1.8l-0.7-1.7l0,0l0-0.1L52.2,7.8z M27.7,11.5
	c-0.5,0.6-1.6,1-2.9,1c-0.9,0-1.7-0.2-2.3-0.5l0.7-1.7l0,0c0.5,0.2,1,0.4,1.6,0.4c1.3,0,1.3-1,1.3-1V9.1V6.9h-1.5l0.7-1.7h0.8h0.8
	h0.9c0.3,0,0.5,0.2,0.5,0.4v4.1C28.3,11.2,27.7,11.5,27.7,11.5L27.7,11.5z M34.2,7.8l-0.2,0.4l0,0.1l0,0l-0.7,1.7h1.8l-0.7-1.7l0,0
	l0-0.1L34.2,7.8z M38.9,26c-0.8,0-1.4,0.6-1.4,1.4c0,0.8,0.6,1.4,1.4,1.4c0.8,0,1.4-0.6,1.4-1.4C40.3,26.7,39.7,26,38.9,26z
	 M41.1,26.5c0,0,0.1,1.2,0.1,1.2l3.2-1.3c0,0,0.1-0.2,0-0.2c-0.1-0.1-0.2,0-0.2,0L41.1,26.5z M38.9,26.8c-0.4,0-0.7,0.3-0.7,0.7
	c0,0.4,0.3,0.7,0.7,0.7c0.4,0,0.7-0.3,0.7-0.7C39.5,27.1,39.3,26.8,38.9,26.8z"/>
<path id="Layer1002" class="st1" d="M22.9,60.2c4.1,0,7.4,3.3,7.4,7.4s-3.3,7.4-7.4,7.4s-7.4-3.3-7.4-7.4S18.8,60.2,22.9,60.2
	L22.9,60.2z M33.6,20.3v4.7c1.2-0.7,2.5-1.4,3-1.7c0.9-0.6,1.6-0.2,1.6-0.2s1.8,1.2,2.1,1.3c0.2,0.1,0.6-0.2,0.7-0.6
	c0.1-0.4,0.5-0.2,0.5-0.2s0.9,0.7,1.1,0.9c0.2,0.2,0.5,0.2,0.5,0.2s6,0,6.2,0s0.4,0.2,0.4,0.2s1.1,0.6,1.6,1
	c0.5,0.4-0.2,0.7-0.2,0.7l-9.8,4.8c-1.9,0.8-0.7,2.4-0.7,2.4l4.6,4.9l6.3-10l1.9-3c0.2-0.3,0.5-0.7,1-1.1v-4.3H33.6z M42.4,76.6
	h-0.7h-2.4c-0.5,0-0.8,0.4-0.8,0.8v14.8h3.9v-5.5H46l1.1-3.2h-4.7v-3.3h3h0.5h2.5l1.2-3.6h-1.8h-1.2L42.4,76.6z M33.6,56.9v0.4h0.2
	L33.6,56.9z M33.6,61.9v9.8c0.4,0.1,0.8,0.1,0.8,0.1h1.9c0.5-1,1.3-2.5,1.8-3.3c0.8-1.3,0.2-2.4,0.2-2.4s-1.5-3-3.3-6.6v0L33.6,61.9
	L33.6,61.9z M33.6,74v2.6h0.2c0.5,0,0.8,0.4,0.8,0.8v8.8c0,3.2-1,3.9-1,3.9v5.7l0.1,0.1c1.9,1,3.7,1.9,5.2,2.9
	c1.2,0.7,2.4,1.4,3.5,2.1c0.6,0.4,1.1,0.7,1.7,1.1c0.6-0.4,1.3-0.8,1.9-1.3c1-0.6,2.1-1.3,3.2-2c1.5-0.9,3.3-1.9,5.2-2.8V90h-1.6
	l-0.8,2.2h-3.9l1.6-4.6l0-0.1l1.5-4.4l0.1-0.2l1.3-3.9h0l0.5-1.5l0,0l0.1-0.2c0.1-0.3,0.4-0.8,1.1-0.8V74h-2.8v-0.4h-5.5
	c0,0-0.8,0.1-1.3,0.7c-0.5,0.7,0.3-2.6,1.9-2.6h2.6l-5.3-10.2h-2.4l2.1,1.5l-2.4,1.2l2.9,1.6l-3.7,2.3l-1.8,3.7h2.6
	c1.5,0,2.4,3.3,1.9,2.6c-0.5-0.7-1.3-0.7-1.3-0.7h-5.5V74L33.6,74z M54.5,71.7V64l-2.2-2.4H50l2.1,1.5l-2.4,1.2l2.9,1.6l-2.9,1.8
	l2.1,4.2h2C53.9,71.8,54.1,71.8,54.5,71.7L54.5,71.7z"/>
<g id="Layer1003">
	<path id="path4367" inkscape:connector-curvature="0" class="st2" d="M44.1,107.1c3.5-2.5,9.8-6.6,18.3-10.3
		c5.9-2.5,9.8-4.8,12.4-7.1c2.3-2,3.6-4,4.5-6.3c2-5.1,1.6-13.6,1.6-13.6l0-0.2V16H7.3v53.6l0,0.2c0,0-0.3,8.5,1.6,13.6
		c0.9,2.3,2.2,4.3,4.5,6.3c2.7,2.3,6.6,4.6,12.4,7.1C34.3,100.5,40.6,104.6,44.1,107.1L44.1,107.1z M32.3,12.5h-2.2l0.9-2.1l0,0
		l0.9-2.1l0-0.1l0.8-1.8h0L33,5.7l0,0l0-0.1c0.1-0.1,0.2-0.4,0.6-0.4H36L35.7,6l0.2,0.4h0l0.8,1.8l0,0.1l0.9,2.1l0,0l0.9,2.1h-2.2
		l-0.4-1h-3.1L32.3,12.5z M58.5,5.2h0.8h1.2l2.8,3.9V7V5.5c0-0.1,0.1-0.2,0.2-0.2h0.8h1.2v5.5v1.5c0,0.1-0.1,0.2-0.2,0.2h-0.8h-1.2
		l-2.8-3.9v2.1v1.5c0,0.1-0.1,0.2-0.2,0.2h-0.8h-1.2V7V5.5C58.3,5.3,58.4,5.2,58.5,5.2z M40.8,5.2h0.1h1.8h1.6h0.1v0
		c1.5,0,2.7,1.3,2.7,2.8s-1.2,2.7-2.7,2.8h0l0,0l0,0h-1.5v1.7h-2.2v-7C40.5,5.3,40.6,5.2,40.8,5.2z M42.7,6.9v2.3h0.9h0h0h0
		c0.6,0,1.1-0.5,1.1-1.1c0-0.6-0.5-1.1-1.1-1.1l0,0h0L42.7,6.9z M50.2,12.5H48l0.9-2.1l0,0l0.9-2.1l0-0.1l0.8-1.8h0l0.3-0.7l0,0
		l0-0.1c0.1-0.1,0.2-0.4,0.6-0.4h2.4L53.6,6l0.2,0.4h0l0.8,1.8l0,0.1l0.9,2.1l0,0l0.9,2.1h-2.2l-0.4-1h-3.1L50.2,12.5z M52.2,7.8
		L52,8.2l0,0.1l0,0l-0.7,1.7h1.8l-0.7-1.7l0,0l0-0.1L52.2,7.8z M27.7,11.5c-0.5,0.6-1.6,1-2.9,1c-0.9,0-1.7-0.2-2.3-0.5l0.7-1.7l0,0
		c0.5,0.2,1,0.4,1.6,0.4c1.3,0,1.3-1,1.3-1V9.1V6.9h-1.5l0.7-1.7h0.8h0.8h0.9c0.3,0,0.5,0.2,0.5,0.4v4.1
		C28.3,11.2,27.7,11.5,27.7,11.5L27.7,11.5z M34.2,7.8l-0.2,0.4l0,0.1l0,0l-0.7,1.7h1.8l-0.7-1.7l0,0l0-0.1L34.2,7.8z M44.1,113.6
		c0,0,7.5-6.5,20.3-12C77.2,96,81.7,91.3,84.1,85.2c2.3-6.1,2-15.6,2-15.6V1.9H2.2v67.7c0,0-0.4,9.5,2,15.6
		c2.3,6.1,6.9,10.8,19.7,16.3C36.6,107.1,44.1,113.6,44.1,113.6z"/>
	<path id="path4369" inkscape:connector-curvature="0" class="st2" d="M77.8,22.9h-15h-3.5c-3.5,0-5.3,2-5.8,2.8l-1.9,3l-6.3,10
		l-4.6-4.9c0,0-1.2-1.6,0.7-2.4l9.8-4.8c0,0,0.7-0.3,0.2-0.7c-0.5-0.4-1.6-1-1.6-1s-0.2-0.2-0.4-0.2s-6.2,0-6.2,0s-0.3,0-0.5-0.2
		c-0.2-0.2-1.1-0.9-1.1-0.9s-0.4-0.2-0.5,0.2c-0.1,0.4-0.5,0.7-0.7,0.6c-0.2-0.1-2.1-1.3-2.1-1.3s-0.7-0.4-1.6,0.2
		c-0.9,0.6-5.4,3-5.4,3s-0.9,0.5-0.9,2c0,1.4,0,13.3,0,13.3l-1.3,4.5c0,0-0.4,1,0.1,2c0.3,0.5,2.5,4.9,4.7,9.2h-10l-1.3-1.1h-0.5
		v1.4h-2.3l-1.3,2.7c1.3-0.9,2.9-1.4,4.6-1.4c4.4,0,8,3.3,8.6,7.5l0,0l1.2-2.4v0l0,0c0,0,0.2-0.8-0.1-1.1c-0.3-0.3-3.3-3.5-3.3-3.5
		h2l2.4,2.6l1.2-2.5v0c1.8,3.6,3.3,6.6,3.3,6.6s0.6,1.1-0.2,2.4c-0.5,0.8-1.3,2.3-1.8,3.3h-1.9c0,0-1.2,0.1-1.7-0.8v1.3h-2.3
		c0,0-1.6,0-1.6,2.6c0,0,0.9-0.9,1.7-0.9s6,0,6,0v-0.4h5.5c0,0,0.8,0.1,1.3,0.7c0.5,0.7-0.3-2.6-1.9-2.6h-2.6l1.8-3.7l3.7-2.3
		l-2.9-1.6l2.4-1.2l-2.1-1.5h2.4l5.3,10.2h-2.6c-1.5,0-2.4,3.3-1.9,2.6c0.5-0.7,1.3-0.7,1.3-0.7h5.5V74c0,0,5.2,0,6,0
		s1.7,0.9,1.7,0.9c0.1-2.6-1.6-2.6-1.6-2.6h-2.3V71c-0.5,0.8-1.7,0.8-1.7,0.8h-2l-2.1-4.2l2.9-1.8l-2.9-1.6l2.4-1.2L50,61.6h2.3
		l6.5,7.2h2.7l-9.2-10.2h2.1l9.2,10.2h2.8L54.6,55.7h2.1l11.8,13.1H72l-14-15.4H65l-4.5-4.5H54l-1.5-1.6h7.2l3.4-4.5H50.2l1-1.6h13
		l3.4-4.5H54.1l1-1.6h13.7l3.4-4.5H58l1-1.6h14.3L77.8,22.9z M38.9,26c-0.8,0-1.4,0.6-1.4,1.4c0,0.8,0.6,1.4,1.4,1.4
		c0.8,0,1.4-0.6,1.4-1.4C40.3,26.7,39.7,26,38.9,26z M41.1,26.5c0,0,0.1,1.2,0.1,1.2l3.2-1.3c0,0,0.1-0.2,0-0.2
		c-0.1-0.1-0.2,0-0.2,0L41.1,26.5z M38.9,26.8c-0.4,0-0.7,0.3-0.7,0.7c0,0.4,0.3,0.7,0.7,0.7c0.4,0,0.7-0.3,0.7-0.7
		C39.5,27.1,39.3,26.8,38.9,26.8z"/>
	<path id="path4371" inkscape:connector-curvature="0" class="st2" d="M33.6,90.1c-1,1.2-2.9,2.1-5.2,2.1c-1.6,0-3-0.4-4-1.1
		l1.2-3.6v0c0.8,0.5,1.8,0.9,2.8,0.9c2.4,0,2.3-2.2,2.3-2.2v-1.3v-4.7h-2.7l1.2-3.6h1.5h1.5h1.6c0.5,0,0.8,0.4,0.8,0.8v8.8
		C34.6,89.4,33.6,90.1,33.6,90.1L33.6,90.1z M52.1,92.2h-3.9l1.6-4.6l0-0.1l1.5-4.4l0.1-0.2l1.3-3.9h0l0.5-1.5l0,0l0.1-0.2
		c0.1-0.3,0.4-0.8,1.1-0.8h4.3l-0.6,1.7l0.3,0.8h0l1.3,3.9l0.1,0.2l1.5,4.4l0,0.1l1.6,4.6h-3.9L58.3,90h-5.5L52.1,92.2z M55.6,82.1
		L55.3,83l-0.1,0.2h0L54,86.7h3.2L56,83.2h0L55.9,83L55.6,82.1z M42.4,76.6h-0.7h-2.4c-0.5,0-0.8,0.4-0.8,0.8v14.8h3.9v-5.5H46
		l1.1-3.2h-4.7v-3.3h3h0.5h2.5l1.2-3.6h-1.8h-1.2L42.4,76.6z"/>
</g>
<path id="path4374" inkscape:connector-curvature="0" class="st3" d="M44.1,104.6c1.7-1.2,3.8-2.5,6.2-4c3.1-1.8,6.8-3.8,11.2-5.7
	c2.8-1.2,5.2-2.4,7.2-3.5c1.9-1.1,3.4-2.2,4.7-3.2c1-0.9,1.8-1.8,2.4-2.7c0.6-0.9,1.1-1.8,1.5-2.8c1.7-4.5,1.5-12,1.5-12.7l0-51.8
	H9.5l0,51.8c0,0.7-0.2,8.2,1.5,12.7c0.4,1,0.8,1.9,1.5,2.8c0.6,0.9,1.4,1.8,2.4,2.7c1.2,1.1,2.8,2.1,4.7,3.2c2,1.1,4.3,2.3,7.2,3.5
	c4.4,1.9,8.1,3.9,11.2,5.7C40.3,102,42.4,103.4,44.1,104.6L44.1,104.6z M80.9,69.8l0,0.6c0,0,0,0.4,0,1.1c0,2.7-0.2,8.2-1.6,11.9
	c-0.9,2.3-2.2,4.3-4.5,6.3c-2.7,2.3-6.6,4.6-12.4,7.1c-8.4,3.7-14.7,7.7-18.3,10.3c-3.5-2.5-9.8-6.6-18.3-10.3
	c-5.9-2.5-9.8-4.8-12.4-7.1c-2.3-2-3.6-4-4.5-6.3c-1.4-3.7-1.6-9.2-1.6-11.9c0-0.7,0-1.1,0-1.1l0-0.6l0,0l0-0.2V16h36.8h36.8v53.6
	L80.9,69.8L80.9,69.8z"/>
</svg>
