<?xml version="1.0" encoding="UTF-8" standalone="no"?>
<!-- Created with Inkscape (http://www.inkscape.org/) -->

<svg
   xmlns:dc="http://purl.org/dc/elements/1.1/"
   xmlns:cc="http://creativecommons.org/ns#"
   xmlns:rdf="http://www.w3.org/1999/02/22-rdf-syntax-ns#"
   xmlns:svg="http://www.w3.org/2000/svg"
   xmlns="http://www.w3.org/2000/svg"
   xmlns:xlink="http://www.w3.org/1999/xlink"
   xmlns:sodipodi="http://sodipodi.sourceforge.net/DTD/sodipodi-0.dtd"
   xmlns:inkscape="http://www.inkscape.org/namespaces/inkscape"
   id="svg20144"
   version="1.1"
   inkscape:version="0.48.5 r10040"
   width="255.21611834"
   height="391.824782269" viewBox="0 0 1000.0 1535.2666"
   xml:space="preserve"
   sodipodi:docname="A.svg"><metadata
     id="metadata20150"><rdf:RDF><cc:Work
         rdf:about=""><dc:format>image/svg+xml</dc:format><dc:type
           rdf:resource="http://purl.org/dc/dcmitype/StillImage" /><dc:title></dc:title></cc:Work></rdf:RDF></metadata><defs
     id="defs20148"><linearGradient
       inkscape:collect="always"
       id="linearGradient22069"><stop
         style="stop-color:#d5d7d8;stop-opacity:1"
         offset="0"
         id="stop22071" /><stop
         style="stop-color:#a7a9ab;stop-opacity:1"
         offset="1"
         id="stop22073" /></linearGradient><linearGradient
       inkscape:collect="always"
       id="linearGradient22061"><stop
         style="stop-color:#a5a8aa;stop-opacity:1"
         offset="0"
         id="stop22063" /><stop
         style="stop-color:#989a9c;stop-opacity:1"
         offset="1"
         id="stop22065" /></linearGradient><linearGradient
       inkscape:collect="always"
       id="linearGradient22053"><stop
         style="stop-color:#cccdcf;stop-opacity:1"
         offset="0"
         id="stop22055" /><stop
         style="stop-color:#aaacaf;stop-opacity:1"
         offset="1"
         id="stop22057" /></linearGradient><radialGradient
       id="radialGradient22045"
       spreadMethod="pad"
       gradientTransform="matrix(42.893997,0,0,-42.893997,567.8839,530.42288)"
       gradientUnits="userSpaceOnUse"
       r="1"
       cy="0"
       cx="0"
       fy="0"
       fx="0"><stop
         id="stop22047"
         offset="0"
         style="stop-opacity:1;stop-color:#fefefe" /><stop
         id="stop22051"
         offset="1"
         style="stop-opacity:1;stop-color:#d6d7d9" /></radialGradient><radialGradient
       fx="0"
       fy="0"
       cx="0"
       cy="0"
       r="1"
       gradientUnits="userSpaceOnUse"
       gradientTransform="matrix(42.893997,0,0,-42.893997,567.8839,530.42288)"
       spreadMethod="pad"
       id="radialGradient22019"><stop
         style="stop-opacity:1;stop-color:#fdfdfd"
         offset="0"
         id="stop22021" /><stop
         style="stop-opacity:1;stop-color:#f3f4f4"
         offset="1"
         id="stop22023" /></radialGradient><radialGradient
       id="radialGradient22009"
       spreadMethod="pad"
       gradientTransform="matrix(42.893997,0,0,-42.893997,567.8839,530.42288)"
       gradientUnits="userSpaceOnUse"
       r="1"
       cy="0"
       cx="0"
       fy="0"
       fx="0"><stop
         id="stop22011"
         offset="0"
         style="stop-opacity:1;stop-color:#ffffff" /><stop
         id="stop22015"
         offset="1"
         style="stop-opacity:1;stop-color:#221f1f" /></radialGradient><linearGradient
       inkscape:collect="always"
       id="linearGradient21991"><stop
         style="stop-color:#ffffff;stop-opacity:1"
         offset="0"
         id="stop21993" /><stop
         style="stop-color:#f6f6f7;stop-opacity:1"
         offset="1"
         id="stop21995" /></linearGradient><radialGradient
       id="radialGradient21981"
       spreadMethod="pad"
       gradientTransform="matrix(57.226044,17.159103,17.565094,-55.587753,574.89232,518.96043)"
       gradientUnits="userSpaceOnUse"
       r="1"
       cy="0"
       cx="0"
       fy="0"
       fx="0"><stop
         id="stop21983"
         offset="0"
         style="stop-opacity:1;stop-color:#ffffff" /><stop
         id="stop21985"
         offset="1"
         style="stop-opacity:1;stop-color:#b8babc" /></radialGradient><clipPath
       clipPathUnits="userSpaceOnUse"
       id="clipPath20268"><path
         d="m 519.12,475.766 148.32,0 0,116.234 -148.32,0 0,-116.234 z"
         id="path20270"
         inkscape:connector-curvature="0" /></clipPath><radialGradient
       fx="0"
       fy="0"
       cx="0"
       cy="0"
       r="1"
       gradientUnits="userSpaceOnUse"
       gradientTransform="matrix(112.66077,0,0,-112.66077,638.02397,607.39742)"
       spreadMethod="pad"
       id="radialGradient20292"><stop
         style="stop-opacity:1;stop-color:#ffffff"
         offset="0"
         id="stop20294" /><stop
         style="stop-opacity:1;stop-color:#5f6162"
         offset="1"
         id="stop20296" /></radialGradient><clipPath
       clipPathUnits="userSpaceOnUse"
       id="clipPath20304"><path
         d="m 519.12,475.766 149.76,0 0,116.234 -149.76,0 0,-116.234 z"
         id="path20306"
         inkscape:connector-curvature="0" /></clipPath><clipPath
       clipPathUnits="userSpaceOnUse"
       id="clipPath20340"><path
         d="m 564.656,587.032 0,-7.791 -0.613,0 c -3.942,0 -5.474,-1.955 -8.233,-4.024 l 0,0 c -2.578,-1.932 -6.932,-3.931 -10.828,-4.215 l 0,0 -0.289,-0.02 0.003,-0.289 c 0.07,-6.313 2.775,-29.06 10.617,-47.304 l 0,0 c 8.063,-18.752 20.61,-33.159 37.3,-42.829 l 0,0 0.155,-0.089 0.154,0.089 c 16.688,9.669 29.237,24.079 37.3,42.829 l 0,0 c 7.844,18.244 10.545,40.991 10.618,47.304 l 0,0 0.003,0.289 -0.288,0.02 c -3.896,0.284 -8.252,2.283 -10.829,4.215 l 0,0 c -2.759,2.069 -4.29,4.024 -8.233,4.024 l 0,0 -0.615,0 0,8.153 -0.367,-0.071 c -3.7,-0.723 -14.76,-2.4 -27.481,-2.396 l 0,0 c -13.033,0.007 -24.986,1.845 -28.01,2.409 l 0,0 -0.364,0.067 0,-0.371 z"
         id="path20342"
         inkscape:connector-curvature="0" /></clipPath><radialGradient
       fx="0"
       fy="0"
       cx="0"
       cy="0"
       r="1"
       gradientUnits="userSpaceOnUse"
       gradientTransform="matrix(57.226044,17.159103,17.565094,-55.587662,574.89232,518.96088)"
       spreadMethod="pad"
       id="radialGradient20408"><stop
         style="stop-opacity:1;stop-color:#ffffff"
         offset="0"
         id="stop20410" /><stop
         style="stop-opacity:1;stop-color:#221f1f"
         offset="1"
         id="stop20412" /></radialGradient><radialGradient
       fx="0"
       fy="0"
       cx="0"
       cy="0"
       r="1"
       gradientUnits="userSpaceOnUse"
       gradientTransform="matrix(57.22612,17.159103,17.565094,-55.587845,574.89143,518.96043)"
       spreadMethod="pad"
       id="radialGradient20428"><stop
         style="stop-opacity:1;stop-color:#ffffff"
         offset="0"
         id="stop20430" /><stop
         style="stop-opacity:1;stop-color:#221f1f"
         offset="1"
         id="stop20432" /></radialGradient><radialGradient
       fx="0"
       fy="0"
       cx="0"
       cy="0"
       r="1"
       gradientUnits="userSpaceOnUse"
       gradientTransform="matrix(57.219879,17.157257,17.563171,-55.581696,574.8932,518.95615)"
       spreadMethod="pad"
       id="radialGradient20448"><stop
         style="stop-opacity:1;stop-color:#ffffff"
         offset="0"
         id="stop20450" /><stop
         style="stop-opacity:1;stop-color:#221f1f"
         offset="1"
         id="stop20452" /></radialGradient><radialGradient
       fx="0"
       fy="0"
       cx="0"
       cy="0"
       r="1"
       gradientUnits="userSpaceOnUse"
       gradientTransform="matrix(57.226044,17.159103,17.565094,-55.587662,574.89232,518.96088)"
       spreadMethod="pad"
       id="radialGradient20468"><stop
         style="stop-opacity:1;stop-color:#ffffff"
         offset="0"
         id="stop20470" /><stop
         style="stop-opacity:1;stop-color:#221f1f"
         offset="1"
         id="stop20472" /></radialGradient><radialGradient
       fx="0"
       fy="0"
       cx="0"
       cy="0"
       r="1"
       gradientUnits="userSpaceOnUse"
       gradientTransform="matrix(57.225952,17.159103,17.565002,-55.587585,574.89143,518.96001)"
       spreadMethod="pad"
       id="radialGradient20488"><stop
         style="stop-opacity:1;stop-color:#ffffff"
         offset="0"
         id="stop20490" /><stop
         style="stop-opacity:1;stop-color:#221f1f"
         offset="1"
         id="stop20492" /></radialGradient><radialGradient
       fx="0"
       fy="0"
       cx="0"
       cy="0"
       r="1"
       gradientUnits="userSpaceOnUse"
       gradientTransform="matrix(57.223663,17.158401,17.5643,-55.585388,574.89232,518.96001)"
       spreadMethod="pad"
       id="radialGradient20508"><stop
         style="stop-opacity:1;stop-color:#ffffff"
         offset="0"
         id="stop20510" /><stop
         style="stop-opacity:1;stop-color:#221f1f"
         offset="1"
         id="stop20512" /></radialGradient><radialGradient
       fx="0"
       fy="0"
       cx="0"
       cy="0"
       r="1"
       gradientUnits="userSpaceOnUse"
       gradientTransform="matrix(57.229385,17.16008,17.566071,-55.590912,574.88977,518.96043)"
       spreadMethod="pad"
       id="radialGradient20528"><stop
         style="stop-opacity:1;stop-color:#ffffff"
         offset="0"
         id="stop20530" /><stop
         style="stop-opacity:1;stop-color:#221f1f"
         offset="1"
         id="stop20532" /></radialGradient><radialGradient
       fx="0"
       fy="0"
       cx="0"
       cy="0"
       r="1"
       gradientUnits="userSpaceOnUse"
       gradientTransform="matrix(57.226471,17.159195,17.565185,-55.588104,574.89143,518.96088)"
       spreadMethod="pad"
       id="radialGradient20548"><stop
         style="stop-opacity:1;stop-color:#ffffff"
         offset="0"
         id="stop20550" /><stop
         style="stop-opacity:1;stop-color:#221f1f"
         offset="1"
         id="stop20552" /></radialGradient><radialGradient
       fx="0"
       fy="0"
       cx="0"
       cy="0"
       r="1"
       gradientUnits="userSpaceOnUse"
       gradientTransform="matrix(57.226044,17.159103,17.565094,-55.587753,574.89232,518.96043)"
       spreadMethod="pad"
       id="radialGradient20568"><stop
         style="stop-opacity:1;stop-color:#ffffff"
         offset="0"
         id="stop20570" /><stop
         style="stop-opacity:1;stop-color:#221f1f"
         offset="1"
         id="stop20572" /></radialGradient><radialGradient
       fx="0"
       fy="0"
       cx="0"
       cy="0"
       r="1"
       gradientUnits="userSpaceOnUse"
       gradientTransform="matrix(57.223755,17.158401,17.564392,-55.58548,574.8932,518.95825)"
       spreadMethod="pad"
       id="radialGradient20588"><stop
         style="stop-opacity:1;stop-color:#ffffff"
         offset="0"
         id="stop20590" /><stop
         style="stop-opacity:1;stop-color:#221f1f"
         offset="1"
         id="stop20592" /></radialGradient><clipPath
       clipPathUnits="userSpaceOnUse"
       id="clipPath20600"><path
         d="m 564.656,587.032 0,-7.791 -0.613,0 c -3.942,0 -5.474,-1.955 -8.233,-4.024 l 0,0 c -2.578,-1.932 -6.932,-3.931 -10.828,-4.215 l 0,0 -0.289,-0.02 0.003,-0.289 c 0.07,-6.313 2.775,-29.06 10.617,-47.304 l 0,0 c 8.063,-18.752 20.61,-33.159 37.3,-42.829 l 0,0 0.155,-0.089 0.154,0.089 c 16.688,9.669 29.237,24.079 37.3,42.829 l 0,0 c 7.844,18.244 10.545,40.991 10.618,47.304 l 0,0 0.003,0.289 -0.288,0.02 c -3.896,0.284 -8.252,2.283 -10.829,4.215 l 0,0 c -2.759,2.069 -4.29,4.024 -8.233,4.024 l 0,0 -0.615,0 0,8.153 -0.367,-0.071 c -3.7,-0.723 -14.76,-2.4 -27.481,-2.396 l 0,0 c -13.033,0.007 -24.986,1.845 -28.01,2.409 l 0,0 -0.364,0.067 0,-0.371 z"
         id="path20602"
         inkscape:connector-curvature="0" /></clipPath><radialGradient
       fx="0"
       fy="0"
       cx="0"
       cy="0"
       r="1"
       gradientUnits="userSpaceOnUse"
       gradientTransform="matrix(57.22612,17.159103,17.565094,-55.587753,574.89143,518.96043)"
       spreadMethod="pad"
       id="radialGradient20620"><stop
         style="stop-opacity:1;stop-color:#ffffff"
         offset="0"
         id="stop20622" /><stop
         style="stop-opacity:1;stop-color:#221f1f"
         offset="1"
         id="stop20624" /></radialGradient><radialGradient
       fx="0"
       fy="0"
       cx="0"
       cy="0"
       r="1"
       gradientUnits="userSpaceOnUse"
       gradientTransform="matrix(42.893997,0,0,-42.893997,567.8839,530.42288)"
       spreadMethod="pad"
       id="radialGradient20640"><stop
         style="stop-opacity:1;stop-color:#ffffff"
         offset="0"
         id="stop20642" /><stop
         style="stop-opacity:1;stop-color:#221f1f"
         offset="0.549454"
         id="stop20644" /><stop
         style="stop-opacity:1;stop-color:#221f1f"
         offset="1"
         id="stop20646" /></radialGradient><radialGradient
       fx="0"
       fy="0"
       cx="0"
       cy="0"
       r="1"
       gradientUnits="userSpaceOnUse"
       gradientTransform="matrix(57.227799,17.159637,17.565628,-55.589432,574.89143,518.96043)"
       spreadMethod="pad"
       id="radialGradient20662"><stop
         style="stop-opacity:1;stop-color:#cdcccc"
         offset="0"
         id="stop20664" /><stop
         style="stop-opacity:1;stop-color:#1b191a"
         offset="1"
         id="stop20666" /></radialGradient><radialGradient
       fx="0"
       fy="0"
       cx="0"
       cy="0"
       r="1"
       gradientUnits="userSpaceOnUse"
       gradientTransform="matrix(57.227173,17.159454,17.565445,-55.588806,574.89143,518.96088)"
       spreadMethod="pad"
       id="radialGradient20682"><stop
         style="stop-opacity:1;stop-color:#cdcccc"
         offset="0"
         id="stop20684" /><stop
         style="stop-opacity:1;stop-color:#1b191a"
         offset="1"
         id="stop20686" /></radialGradient><clipPath
       clipPathUnits="userSpaceOnUse"
       id="clipPath20694"><path
         d="m 519.12,475.766 149.76,0 0,116.234 -149.76,0 0,-116.234 z"
         id="path20696"
         inkscape:connector-curvature="0" /></clipPath><clipPath
       clipPathUnits="userSpaceOnUse"
       id="clipPath20706"><path
         d="m 519.12,475.766 148.32,0 0,116.234 -148.32,0 0,-116.234 z"
         id="path20708"
         inkscape:connector-curvature="0" /></clipPath><clipPath
       clipPathUnits="userSpaceOnUse"
       id="clipPath20722"><path
         d="m 519.12,475.766 149.76,0 0,116.234 -149.76,0 0,-116.234 z"
         id="path20724"
         inkscape:connector-curvature="0" /></clipPath><linearGradient
       inkscape:collect="always"
       xlink:href="#linearGradient21991"
       id="linearGradient21997"
       x1="582.84082"
       y1="527.87799"
       x2="592.24622"
       y2="522.29358"
       gradientUnits="userSpaceOnUse" /><linearGradient
       inkscape:collect="always"
       xlink:href="#radialGradient22009"
       id="linearGradient21999"
       x1="588.85712"
       y1="520.13403"
       x2="605.62219"
       y2="511.26651"
       gradientUnits="userSpaceOnUse" /><linearGradient
       inkscape:collect="always"
       xlink:href="#radialGradient22045"
       id="linearGradient22043"
       x1="586.77881"
       y1="507.94119"
       x2="598.55591"
       y2="496.16406"
       gradientUnits="userSpaceOnUse" /><linearGradient
       inkscape:collect="always"
       xlink:href="#linearGradient22053"
       id="linearGradient22059"
       x1="599.80292"
       y1="496.57971"
       x2="602.98969"
       y2="490.48334"
       gradientUnits="userSpaceOnUse" /><linearGradient
       inkscape:collect="always"
       xlink:href="#linearGradient22061"
       id="linearGradient22067"
       x1="610.61017"
       y1="499.80112"
       x2="612.23822"
       y2="498.7966"
       gradientUnits="userSpaceOnUse" /><linearGradient
       inkscape:collect="always"
       xlink:href="#linearGradient22069"
       id="linearGradient22075"
       x1="605.96857"
       y1="514.10687"
       x2="614.62823"
       y2="514.66113"
       gradientUnits="userSpaceOnUse" /><linearGradient
       inkscape:collect="always"
       xlink:href="#linearGradient22061"
       id="linearGradient22079"
       gradientUnits="userSpaceOnUse"
       x1="610.61017"
       y1="499.80112"
       x2="612.23822"
       y2="498.7966" /><linearGradient
       inkscape:collect="always"
       xlink:href="#linearGradient22061"
       id="linearGradient22081"
       gradientUnits="userSpaceOnUse"
       x1="610.61017"
       y1="499.80112"
       x2="612.23822"
       y2="498.7966" /><linearGradient
       inkscape:collect="always"
       xlink:href="#linearGradient22061"
       id="linearGradient22083"
       gradientUnits="userSpaceOnUse"
       x1="610.61017"
       y1="499.80112"
       x2="612.23822"
       y2="498.7966" /><linearGradient
       inkscape:collect="always"
       xlink:href="#linearGradient22069"
       id="linearGradient22087"
       gradientUnits="userSpaceOnUse"
       x1="605.96857"
       y1="514.10687"
       x2="614.62823"
       y2="514.66113" /><linearGradient
       inkscape:collect="always"
       xlink:href="#linearGradient22069"
       id="linearGradient22089"
       gradientUnits="userSpaceOnUse"
       x1="605.96857"
       y1="514.10687"
       x2="614.62823"
       y2="514.66113" /><linearGradient
       inkscape:collect="always"
       xlink:href="#linearGradient22069"
       id="linearGradient22091"
       gradientUnits="userSpaceOnUse"
       x1="605.96857"
       y1="514.10687"
       x2="614.62823"
       y2="514.66113" /><linearGradient
       inkscape:collect="always"
       xlink:href="#radialGradient22045"
       id="linearGradient22095"
       gradientUnits="userSpaceOnUse"
       x1="586.77881"
       y1="507.94119"
       x2="598.55591"
       y2="496.16406" /><linearGradient
       inkscape:collect="always"
       xlink:href="#radialGradient22045"
       id="linearGradient22097"
       gradientUnits="userSpaceOnUse"
       x1="586.77881"
       y1="507.94119"
       x2="598.55591"
       y2="496.16406" /><linearGradient
       inkscape:collect="always"
       xlink:href="#radialGradient22045"
       id="linearGradient22099"
       gradientUnits="userSpaceOnUse"
       x1="586.77881"
       y1="507.94119"
       x2="598.55591"
       y2="496.16406" /><linearGradient
       inkscape:collect="always"
       xlink:href="#linearGradient22053"
       id="linearGradient22103"
       gradientUnits="userSpaceOnUse"
       x1="599.80292"
       y1="496.57971"
       x2="602.98969"
       y2="490.48334" /><linearGradient
       inkscape:collect="always"
       xlink:href="#linearGradient22053"
       id="linearGradient22105"
       gradientUnits="userSpaceOnUse"
       x1="599.80292"
       y1="496.57971"
       x2="602.98969"
       y2="490.48334" /><linearGradient
       inkscape:collect="always"
       xlink:href="#linearGradient22053"
       id="linearGradient22107"
       gradientUnits="userSpaceOnUse"
       x1="599.80292"
       y1="496.57971"
       x2="602.98969"
       y2="490.48334" /><linearGradient
       inkscape:collect="always"
       xlink:href="#linearGradient21991"
       id="linearGradient22111"
       gradientUnits="userSpaceOnUse"
       x1="582.84082"
       y1="527.87799"
       x2="592.24622"
       y2="522.29358" /><linearGradient
       inkscape:collect="always"
       xlink:href="#linearGradient21991"
       id="linearGradient22113"
       gradientUnits="userSpaceOnUse"
       x1="582.84082"
       y1="527.87799"
       x2="592.24622"
       y2="522.29358" /><linearGradient
       inkscape:collect="always"
       xlink:href="#linearGradient21991"
       id="linearGradient22115"
       gradientUnits="userSpaceOnUse"
       x1="582.84082"
       y1="527.87799"
       x2="592.24622"
       y2="522.29358" /><clipPath
       clipPathUnits="userSpaceOnUse"
       id="clipPath22355"><path
         inkscape:connector-curvature="0"
         d="M 0,0 612,0 612,792 0,792 0,0 z"
         id="path22357" /></clipPath><clipPath
       clipPathUnits="userSpaceOnUse"
       id="clipPath22900"><path
         inkscape:connector-curvature="0"
         d="M 0,0 612,0 612,792 0,792 0,0 z"
         id="path22902" /></clipPath><clipPath
       clipPathUnits="userSpaceOnUse"
       id="clipPath22886"><path
         inkscape:connector-curvature="0"
         d="M 0,0 612,0 612,792 0,792 0,0 z"
         id="path22888" /></clipPath><clipPath
       clipPathUnits="userSpaceOnUse"
       id="clipPath22870"><path
         inkscape:connector-curvature="0"
         d="M 0,0 612,0 612,792 0,792 0,0 z"
         id="path22872" /></clipPath><clipPath
       clipPathUnits="userSpaceOnUse"
       id="clipPath22838"><path
         inkscape:connector-curvature="0"
         d="M 0,0 612,0 612,792 0,792 0,0 z"
         id="path22840" /></clipPath><clipPath
       clipPathUnits="userSpaceOnUse"
       id="clipPath22782"><path
         inkscape:connector-curvature="0"
         d="M 0,0 612,0 612,792 0,792 0,0 z"
         id="path22784" /></clipPath><clipPath
       clipPathUnits="userSpaceOnUse"
       id="clipPath22900-1"><path
         inkscape:connector-curvature="0"
         d="M 0,0 612,0 612,792 0,792 0,0 z"
         id="path22902-2" /></clipPath><clipPath
       clipPathUnits="userSpaceOnUse"
       id="clipPath22886-9"><path
         inkscape:connector-curvature="0"
         d="M 0,0 612,0 612,792 0,792 0,0 z"
         id="path22888-0" /></clipPath><clipPath
       clipPathUnits="userSpaceOnUse"
       id="clipPath22870-3"><path
         inkscape:connector-curvature="0"
         d="M 0,0 612,0 612,792 0,792 0,0 z"
         id="path22872-5" /></clipPath><clipPath
       clipPathUnits="userSpaceOnUse"
       id="clipPath22838-1"><path
         inkscape:connector-curvature="0"
         d="M 0,0 612,0 612,792 0,792 0,0 z"
         id="path22840-0" /></clipPath><clipPath
       clipPathUnits="userSpaceOnUse"
       id="clipPath22782-2"><path
         inkscape:connector-curvature="0"
         d="M 0,0 612,0 612,792 0,792 0,0 z"
         id="path22784-4" /></clipPath></defs><sodipodi:namedview
     pagecolor="#ffffff"
     bordercolor="#666666"
     borderopacity="1"
     objecttolerance="10"
     gridtolerance="10"
     guidetolerance="10"
     inkscape:pageopacity="0"
     inkscape:pageshadow="2"
     inkscape:window-width="1055"
     inkscape:window-height="1044"
     id="namedview20146"
     showgrid="false"
     fit-margin-left="0.5"
     fit-margin-bottom="0.5"
     fit-margin-top="0.5"
     fit-margin-right="0.5"
     inkscape:zoom="0.36086854"
     inkscape:cx="695.06965"
     inkscape:cy="561.10855"
     inkscape:window-x="857"
     inkscape:window-y="-21"
     inkscape:window-maximized="0"
     inkscape:current-layer="g20152" /><g
     id="g20152"
     inkscape:groupmode="layer"
     inkscape:label="BostonBreakers2013MediaGuide"
     transform="matrix(1.25,0,0,-1.25,-1329.1541,3617.4828)"><g
       id="g23084"
       transform="matrix(18.931659,0,0,18.931659,-9172.6834,-11770.75)"><g
         clip-path="url(#clipPath22782-2)"
         id="g23086"><g
           transform="translate(577.4272,767.5328)"
           id="g23088" /><g
           transform="translate(555.9479,745.4606)"
           id="g23092"><path
             id="path23094"
             style="fill:#ffffff;fill-opacity:1;fill-rule:nonzero;stroke:none"
             d="m 0,0 c 0.699,-4.422 5.862,-5.975 5.863,-5.975 0,0 5.164,1.553 5.862,5.975 L 12.326,7.519 7.193,6.668 C 7.033,5.029 6.89,3.397 6.728,1.726 l -1.73,0 C 4.835,3.397 4.692,5.029 4.533,6.668 L -0.601,7.52 0,0 z"
             inkscape:connector-curvature="0" /></g><g
           transform="translate(576.8669,764.1301)"
           id="g23096"><path
             id="path23098"
             style="fill:#1f2227;fill-opacity:1;fill-rule:nonzero;stroke:none"
             d="m 0,0 -0.405,-2.567 2.158,0 0,-13.038 -4.967,5.919 c -3.378,0.535 -6.782,0.84 -10.19,0.914 -0.128,-1.082 -0.239,-2.147 -0.342,-3.209 l 5.133,0.851 -0.601,-7.519 c -0.698,-4.422 -5.862,-5.975 -5.862,-5.975 -10e-4,0 -5.164,1.553 -5.863,5.975 l -0.601,7.519 5.133,-0.851 c -0.103,1.062 -0.196,2.145 -0.324,3.227 -3.408,-0.074 -6.83,-0.397 -10.208,-0.932 l -4.966,-5.919 0,13.038 2.157,0 -0.405,2.567 -4.32,0 0,-33.643 c 0.36,-4.491 3.659,-8.985 9.806,-13.357 4.351,-3.095 9.591,-5.471 9.591,-5.471 0,0 5.239,2.376 9.59,5.471 6.147,4.372 9.446,8.866 9.806,13.357 L 4.32,0 0,0 z"
             inkscape:connector-curvature="0" /></g><g
           transform="translate(560.2991,743.7062)"
           id="g23100"><path
             id="path23102"
             style="fill:#1f2227;fill-opacity:1;fill-rule:nonzero;stroke:none"
             d="m 0,0 0.096,-0.674 2.831,0 L 3.023,0 C 3.023,0 2.376,-0.251 1.512,-0.251 0.647,-0.251 0,0 0,0"
             inkscape:connector-curvature="0" /></g><g
           transform="translate(559.3929,744.7375)"
           id="g23104"><path
             id="path23106"
             style="fill:#1f2227;fill-opacity:1;fill-rule:nonzero;stroke:none"
             d="m 0,0 c 0,0 1.172,0.223 1.657,0.223 0.485,0 0.761,-0.218 0.761,-0.218 0,0 0.275,0.217 0.76,0.217 C 3.663,0.222 4.835,0 4.835,0 L 4.976,0.27 3.053,1.272 c 0,0 -0.212,-0.347 -0.635,-0.347 -0.424,0 -0.635,0.347 -0.635,0.347 L -0.141,0.27 0,0 z"
             inkscape:connector-curvature="0" /></g><g
           transform="translate(544.9816,730.577)"
           id="g23108"><path
             id="path23110"
             style="fill:#134b8b;fill-opacity:1;fill-rule:nonzero;stroke:none"
             d="M 0,0 C 0.131,-1.419 0.665,-2.882 1.588,-4.361 L 8.927,18.915 8.817,20.293 0,1.384 0,0 z"
             inkscape:connector-curvature="0" /></g><g
           transform="translate(578.6396,745.1779)"
           id="g23112"><path
             id="path23114"
             style="fill:#134b8b;fill-opacity:1;fill-rule:nonzero;stroke:none"
             d="m 0,0 -6.497,7.743 c -0.325,0.046 -0.651,0.089 -0.977,0.13 L 0,-8.155 0,0 z"
             inkscape:connector-curvature="0" /></g><g
           transform="translate(578.6396,730.577)"
           id="g23116"><path
             id="path23118"
             style="fill:#134b8b;fill-opacity:1;fill-rule:nonzero;stroke:none"
             d="m 0,0 0,1.384 -8.817,18.909 -0.11,-1.378 7.339,-23.276 C -0.665,-2.882 -0.131,-1.419 0,0"
             inkscape:connector-curvature="0" /></g><g
           transform="translate(544.9816,737.0228)"
           id="g23120"><path
             id="path23122"
             style="fill:#134b8b;fill-opacity:1;fill-rule:nonzero;stroke:none"
             d="M 0,0 7.474,16.028 C 7.148,15.987 6.822,15.944 6.497,15.898 L 0,8.155 0,0 z"
             inkscape:connector-curvature="0" /></g><g
           transform="translate(577.1571,765.8214)"
           id="g23124"><path
             id="path23126"
             style="fill:#134b8b;fill-opacity:1;fill-rule:nonzero;stroke:none"
             d="m 0,0 -0.135,-0.856 5.04,0 0,-34.498 0,-0.035 -0.002,-0.034 c -0.381,-4.755 -3.8,-9.46 -10.163,-13.985 -4.368,-3.107 -9.516,-5.456 -9.733,-5.554 l -0.353,-0.16 -0.354,0.16 c -0.217,0.098 -5.365,2.447 -9.733,5.554 -6.363,4.525 -9.782,9.23 -10.163,13.985 l -0.002,0.034 0,0.035 0,34.498 5.04,0 -0.135,0.856 -5.761,0 0,-35.354 0,-0.035 0,-0.034 0.003,-0.035 0.003,-0.034 c 0.401,-5.018 3.94,-9.935 10.519,-14.614 4.439,-3.157 9.656,-5.536 9.876,-5.635 l 0.353,-0.161 0.354,-0.16 0.353,0.16 0.354,0.161 c 0.219,0.099 5.436,2.478 9.875,5.635 6.579,4.679 10.118,9.596 10.519,14.615 l 0.003,0.033 0.003,0.035 0,0.034 0,0.035 L 5.761,0 0,0 z"
             inkscape:connector-curvature="0" /></g><g
           transform="translate(576.1802,770.6093)"
           id="g23128"><path
             id="path23130"
             style="fill:#76828b;fill-opacity:1;fill-rule:nonzero;stroke:none"
             d="m 0,0 -5.154,-4.246 2.591,0 -0.126,-0.795 c -0.139,-1.088 -1.457,-1.852 -2.873,-1.705 -1.191,0.125 -2.144,0.84 -2.396,1.736 -0.381,-0.848 -1.43,-1.415 -2.626,-1.362 -1.158,0.054 -2.471,0.726 -2.461,1.779 l 0,3.239 c 0.757,-0.185 1.559,-0.363 2.307,-0.566 -1.131,1.991 -2.341,3.96 -3.632,5.904 -1.29,-1.943 -2.501,-3.913 -3.632,-5.904 0.749,0.203 1.55,0.381 2.308,0.566 l 0,-3.239 c 0.01,-1.053 -1.304,-1.725 -2.462,-1.779 -1.195,-0.053 -2.244,0.514 -2.625,1.362 -0.252,-0.896 -1.206,-1.611 -2.397,-1.735 -1.415,-0.148 -2.733,0.616 -2.873,1.705 l -0.125,0.794 2.591,0 -5.154,4.246 1.552,-9.831 c 0,0 0,10e-4 0,0.002 0.121,-0.778 1.547,-1.406 2.186,-1.325 -0.652,-0.084 -1.768,-1.187 -1.679,-1.887 0,0 -0.001,0.001 -0.001,0.002 0.149,-1.049 0.299,-2.098 0.449,-3.146 3.378,0.535 6.782,0.839 10.19,0.914 0.326,-2.751 0.539,-5.397 0.807,-8.152 l 1.731,0 c 0.267,2.755 0.481,5.401 0.807,8.152 3.408,-0.075 6.812,-0.379 10.189,-0.914 0.151,1.048 0.301,2.097 0.45,3.145 0,0 -0.001,-0.002 -0.001,-0.002 0.088,0.701 -1.027,1.804 -1.68,1.888 0.64,-0.082 2.065,0.547 2.187,1.325 0,-10e-4 0,-0.003 0,-0.002 L 0,0 z m -20.239,-12.229 c -0.034,0.544 -1.268,1.523 -1.922,1.453 0.64,0.067 1.712,1.253 1.678,1.791 0.047,-0.538 1.285,-1.532 1.928,-1.504 -0.656,-0.029 -1.731,-1.197 -1.684,-1.74 m 5.869,-0.112 c -0.751,0 -1.389,0.599 -1.389,1.355 0,1.319 1.379,2.701 1.389,2.697 0.01,0.004 1.389,-1.378 1.389,-2.698 0,-0.755 -0.637,-1.354 -1.389,-1.354 m 5.87,0.112 c 0.047,0.543 -1.029,1.711 -1.684,1.74 0.642,-0.028 1.881,0.966 1.928,1.504 -0.034,-0.538 1.037,-1.724 1.677,-1.791 -0.653,0.07 -1.887,-0.909 -1.921,-1.453"
             inkscape:connector-curvature="0" /></g></g></g><g
       transform="matrix(18.931659,0,0,18.931659,1380.3581,2150.9687)"
       id="g23132"><path
         id="path23134"
         style="fill:#76828b;fill-opacity:1;fill-rule:nonzero;stroke:none"
         d="m 0,0 -0.643,0 0,0.534 0.509,0 0,0.359 -0.509,0 0,0.482 0.628,0 0,-0.332 0.427,0 0,0.71 -1.787,0 0,-0.381 0.256,0 0,-1.369 -0.256,0 0,-0.384 1.802,0 0,0.753 L 0,0.372 0,0 z"
         inkscape:connector-curvature="0" /></g><g
       id="g23136"
       transform="matrix(18.931659,0,0,18.931659,-9172.6834,-11770.75)"><g
         clip-path="url(#clipPath22838-1)"
         id="g23138"><g
           transform="translate(555.0478,736.2391)"
           id="g23140"><path
             id="path23142"
             style="fill:#76828b;fill-opacity:1;fill-rule:nonzero;stroke:none"
             d="m 0,0 -0.625,0.067 c -0.094,0.012 -0.128,0.015 -0.146,0.037 -0.028,0.024 -0.031,0.064 -0.031,0.17 0,0.116 0.006,0.174 0.027,0.195 0.019,0.019 0.05,0.022 0.129,0.022 l 0.396,0 c 0.086,0 0.113,-0.006 0.131,-0.024 0.021,-0.022 0.031,-0.068 0.037,-0.26 l 0.46,0 C 0.372,0.582 0.345,0.698 0.253,0.79 0.186,0.857 0.082,0.881 -0.101,0.881 l -0.713,0 c -0.162,0 -0.262,-0.036 -0.326,-0.1 -0.098,-0.099 -0.138,-0.251 -0.138,-0.522 0,-0.29 0.028,-0.414 0.111,-0.5 0.066,-0.064 0.155,-0.094 0.301,-0.11 l 0.625,-0.067 c 0.086,-0.009 0.128,-0.018 0.147,-0.037 0.027,-0.027 0.03,-0.066 0.03,-0.173 0,-0.129 -0.006,-0.186 -0.027,-0.21 -0.022,-0.019 -0.058,-0.025 -0.147,-0.025 l -0.43,0 c -0.091,0 -0.122,0.009 -0.14,0.027 -0.018,0.019 -0.027,0.068 -0.033,0.278 l -0.464,0 c 0.003,-0.381 0.034,-0.512 0.122,-0.6 0.074,-0.071 0.177,-0.095 0.357,-0.095 l 0.768,0 c 0.171,0 0.268,0.036 0.333,0.1 0.097,0.098 0.137,0.25 0.137,0.543 0,0.29 -0.034,0.421 -0.116,0.503 C 0.232,-0.043 0.147,-0.016 0,0"
             inkscape:connector-curvature="0" /></g><g
           transform="translate(559.6014,734.9858)"
           id="g23144"><path
             id="path23146"
             style="fill:#76828b;fill-opacity:1;fill-rule:nonzero;stroke:none"
             d="m 0,0 0.963,0 0,0.384 -0.204,0 -0.524,1.607 C 0.195,2.11 0.152,2.144 0.033,2.144 l -0.344,0 c -0.119,0 -0.162,-0.034 -0.201,-0.153 l -0.525,-1.607 -0.207,0 0,-0.384 0.927,0 0,0.378 -0.244,0 0.079,0.281 0.644,0 L 0.244,0.378 0,0.378 0,0 z m -0.381,1.022 0.201,0.695 0.04,0 0.201,-0.695 -0.442,0 z"
             inkscape:connector-curvature="0" /></g></g></g><g
       transform="matrix(18.931659,0,0,18.931659,1607.9943,2150.9687)"
       id="g23148"><path
         id="path23150"
         style="fill:#76828b;fill-opacity:1;fill-rule:nonzero;stroke:none"
         d="m 0,0 -0.643,0 0,0.534 0.509,0 0,0.359 -0.509,0 0,0.482 0.628,0 0,-0.332 0.426,0 0,0.71 -1.786,0 0,-0.381 0.256,0 0,-1.369 -0.256,0 0,-0.384 1.802,0 0,0.753 L 0,0.372 0,0 z"
         inkscape:connector-curvature="0" /></g><g
       transform="matrix(18.931659,0,0,18.931659,1453.9265,2151.0217)"
       id="g23152"><path
         id="path23154"
         style="fill:#76828b;fill-opacity:1;fill-rule:nonzero;stroke:none"
         d="m 0,0 0,-0.384 1.025,0 0,0.384 -0.275,0 0,1.375 0.348,0 0,-0.405 0.402,0 0,0.78 -1.975,0 0,-0.78 0.402,0 0,0.405 0.348,0 L 0.275,0 0,0 z"
         inkscape:connector-curvature="0" /></g><g
       transform="matrix(18.931659,0,0,18.931659,1564.1448,2150.9687)"
       id="g23156"><path
         id="path23158"
         style="fill:#76828b;fill-opacity:1;fill-rule:nonzero;stroke:none"
         d="m 0,0 -0.579,0 0,1.372 0.271,0 0,0.381 -1.003,0 0,-0.381 0.256,0 0,-1.369 -0.256,0 0,-0.384 1.738,0 0,0.768 L 0,0.387 0,0 z"
         inkscape:connector-curvature="0" /></g><g
       transform="matrix(18.931659,0,0,18.931659,1529.3522,2169.3817)"
       id="g23160"><path
         id="path23162"
         style="fill:#76828b;fill-opacity:1;fill-rule:nonzero;stroke:none"
         d="m 0,0 0,0.781 -1.975,0 0,-0.781 0.402,0 0,0.406 0.347,0 0,-1.376 -0.274,0 0,-0.384 1.025,0 0,0.384 -0.275,0 0,1.376 0.348,0 L -0.402,0 0,0 z"
         inkscape:connector-curvature="0" /></g><g
       id="g23164"
       transform="matrix(18.931659,0,0,18.931659,-9172.6834,-11770.75)"><g
         clip-path="url(#clipPath22870-3)"
         id="g23166"><g
           transform="translate(564.6141,719.3303)"
           id="g23168"><path
             id="path23170"
             style="fill:#76828b;fill-opacity:1;fill-rule:nonzero;stroke:none"
             d="m 0,0 c 0,-0.235 -0.108,-0.344 -0.335,-0.344 l -0.684,0 c -0.235,0 -0.344,0.109 -0.344,0.344 l 0,1.898 c 0,0.235 0.109,0.344 0.344,0.344 l 0.667,0 c 0.227,0 0.336,-0.109 0.336,-0.344 l 0,-0.445 0.971,0.311 0,0.275 c 0,0.73 -0.352,1.082 -1.082,1.082 l -1.134,0 c -0.729,0 -1.09,-0.361 -1.09,-1.09 l 0,-2.164 c 0,-0.73 0.361,-1.09 1.09,-1.09 l 1.143,0 c 0.729,0 1.09,0.36 1.09,1.09 l 0,0.267 L 0,0.445 0,0 z"
             inkscape:connector-curvature="0" /></g></g></g><g
       transform="matrix(18.931659,0,0,18.931659,1400.3764,1825.1587)"
       id="g23172"><path
         id="path23174"
         style="fill:#76828b;fill-opacity:1;fill-rule:nonzero;stroke:none"
         d="m 0,0 0.989,0 0,1.67 1.641,0 0,0.904 -1.641,0 0,0.765 1.821,0 0,0.905 L 0,4.244 0,0 z"
         inkscape:connector-curvature="0" /></g><g
       id="g23176"
       transform="matrix(18.931659,0,0,18.931659,-9172.6834,-11770.75)"><g
         clip-path="url(#clipPath22886-9)"
         id="g23178"><g
           transform="translate(557.4352,726.6215)"
           id="g23180"><path
             id="path23182"
             style="fill:#ffffff;fill-opacity:1;fill-rule:nonzero;stroke:none"
             d="m 0,0 0,1.876 2.136,0 0,1.285 -2.136,0 0,2.243 2.202,0 0,1.286 -3.62,0 0,-6.781 c 0,-1.153 0.57,-1.723 1.723,-1.723 l 1.923,0.107 0,1.284 L 0.531,-0.53 C 0.173,-0.53 0,-0.357 0,0"
             inkscape:connector-curvature="0" /></g></g></g><path
       id="path23184"
       style="fill:#ffffff;fill-opacity:1;fill-rule:nonzero;stroke:none"
       d="m 1449.5117,1954.0776 26.8451,0 0,157.9658 -26.8451,0 0,-157.9658 z"
       inkscape:connector-curvature="0" /><g
       id="g23186"
       transform="matrix(18.931659,0,0,18.931659,-9172.6834,-11770.75)"><g
         clip-path="url(#clipPath22900-1)"
         id="g23188"><g
           transform="translate(566.0038,728.53)"
           id="g23190"><path
             id="path23192"
             style="fill:#ffffff;fill-opacity:1;fill-rule:nonzero;stroke:none"
             d="m 0,0 0.742,0 0,-2.008 c 0,-0.37 -0.182,-0.553 -0.532,-0.553 -0.154,0.002 -0.353,0.014 -0.353,0.014 -0.371,0 -0.519,0.24 -0.519,0.611 l 0,5.009 c 0,0.371 0.172,0.543 0.543,0.543 l 0.292,0 c 0.357,0 0.529,-0.172 0.529,-0.543 l 0,-0.985 1.391,0.696 0,0.369 c 0,1.138 -0.557,1.708 -1.709,1.708 l -0.741,0 c -1.152,0 -1.722,-0.57 -1.722,-1.722 l 0,-5.141 c 0,-1.152 0.549,-1.659 1.736,-1.727 0.097,-0.01 0.741,-0.067 0.741,-0.067 1.183,-0.147 1.721,0.57 1.721,1.722 l 0,3.292 L 0,1.218 0,0 z"
             inkscape:connector-curvature="0" /></g><g
           transform="translate(551.9497,728.4973)"
           id="g23194"><path
             id="path23196"
             style="fill:#ffffff;fill-opacity:1;fill-rule:nonzero;stroke:none"
             d="m 0,0 0.636,0 c 0.411,0 0.596,-0.186 0.596,-0.597 l 0,-3.632 1.418,0.209 0,3.503 c 0,0.702 -0.238,1.06 -0.822,1.219 0.517,0.212 0.809,0.609 0.809,1.431 l 0,0.958 c 0,1.153 -0.57,1.723 -1.723,1.723 l -2.332,0 0,-9.553 L 0,-4.448 0,0 z m 0,3.555 0.689,0 c 0.358,0 0.53,-0.172 0.53,-0.53 l 0,-1.17 c 0,-0.385 -0.185,-0.57 -0.583,-0.57 l -0.636,0 0,2.27 z"
             inkscape:connector-curvature="0" /></g><g
           transform="translate(569.5404,724.3497)"
           id="g23198"><path
             id="path23200"
             style="fill:#ffffff;fill-opacity:1;fill-rule:nonzero;stroke:none"
             d="m 0,0 1.418,-0.233 0,7.949 0.782,0 c 0.357,0 0.529,-0.172 0.529,-0.544 l 0,-7.666 1.392,-0.319 0,8.065 c 0,1.153 -0.557,1.71 -1.709,1.71 L 0,8.962 0,0 z"
             inkscape:connector-curvature="0" /></g></g></g></g></svg>